<svg width="17" height="12" viewBox="0 0 17 12" fill="none" xmlns="http://www.w3.org/2000/svg">
<path fill-rule="evenodd" clip-rule="evenodd" d="M1.84615 0H14.7692C15.2589 0 15.7284 0.194505 16.0747 0.540726C16.4209 0.886947 16.6154 1.35652 16.6154 1.84615V10.1538C16.6154 10.6435 16.4209 11.1131 16.0747 11.4593C15.7284 11.8055 15.2589 12 14.7692 12H1.84615C1.35652 12 0.886947 11.8055 0.540726 11.4593C0.194505 11.1131 0 10.6435 0 10.1538V1.84615C0 1.35652 0.194505 0.886947 0.540726 0.540726C0.886947 0.194505 1.35652 0 1.84615 0ZM13.9791 1.69846L8.30769 4.752L2.63631 1.69846C2.55617 1.65345 2.46788 1.62485 2.37657 1.61433C2.28527 1.6038 2.19278 1.61156 2.1045 1.63716C2.01623 1.66275 1.93393 1.70566 1.86242 1.7634C1.7909 1.82113 1.7316 1.89252 1.68797 1.97342C1.64434 2.05431 1.61725 2.14308 1.60828 2.23455C1.59932 2.32602 1.60866 2.41837 1.63575 2.50619C1.66285 2.59401 1.70716 2.67556 1.76611 2.74608C1.82505 2.8166 1.89745 2.87468 1.97908 2.91692L7.97908 6.14769C8.184 6.25846 8.43139 6.25846 8.63631 6.14769L14.6363 2.91692C14.7946 2.82801 14.9117 2.68047 14.9622 2.50609C15.0128 2.33171 14.9928 2.14444 14.9066 1.98464C14.8204 1.82484 14.6749 1.7053 14.5014 1.65177C14.3279 1.59824 14.1403 1.61501 13.9791 1.69846Z" fill="#FF6F37"/>
</svg>
