<svg width="20" height="18" viewBox="0 0 20 18" fill="none" xmlns="http://www.w3.org/2000/svg">
<path d="M9.82311 0.335268C9.89815 0.193039 10.1018 0.193038 10.1769 0.335268L13.0106 5.70613C13.0395 5.76098 13.0923 5.7993 13.1534 5.80988L19.137 6.8452C19.2955 6.87262 19.3584 7.06635 19.2464 7.18167L15.014 11.5364C14.9708 11.5808 14.9507 11.6428 14.9595 11.7042L15.8239 17.715C15.8468 17.8741 15.682 17.9939 15.5377 17.9229L10.0883 15.2434C10.0326 15.216 9.9674 15.216 9.91175 15.2434L4.46232 17.9229C4.31801 17.9939 4.15322 17.8741 4.17611 17.715L5.04051 11.7042C5.04934 11.6428 5.02919 11.5808 4.98597 11.5364L0.753632 7.18167C0.641553 7.06635 0.704499 6.87262 0.862956 6.8452L6.84662 5.80988C6.90772 5.7993 6.96047 5.76098 6.98941 5.70613L9.82311 0.335268Z" fill="#FED837"/>
</svg>
